#!OML:ASF F:\VICON\USERDATA\INSTALL\rory3\rory3.ASF
:FULLY-SPECIFIED
:DEGREES
49
root 0.82606 18.5449 -1.37103 1.29349 -4.8482 2.25819
lowerback 9.95315 1.1357 -3.12635
upperback 1.77963 1.08891 -2.03335
thorax -3.74599 0.56501 -0.49485
lowerneck -9.75247 -2.89016 -7.78851
upperneck 6.58478 -3.65896 9.28567
head 3.87321 -1.54834 3.89405
rclavicle -9.64106e-015 2.34566e-014
rhumerus -30.4291 2.14844 -85.5274
rradius 30.8838
rwrist 19.0075
rhand -29.458 -1.74695
rfingers 7.12502
rthumb -2.79401 -31.7084
lclavicle -9.64106e-015 2.34566e-014
lhumerus -30.1858 14.2703 76.247
lradius 25.1771
lwrist -3.17405
lhand -28.8023 33.5629
lfingers 7.12502
lthumb -2.1608 63.5317
rfemur -12.9458 17.0836 16.3981
rtibia 32.795
rfoot -20.5499 -15.3388
rtoes -2.19001
lfemur -12.0668 -0.503774 -21.7386
ltibia 30.6664
lfoot -17.1808 7.0486
ltoes -6.97014
50
root 0.825991 18.5017 -1.39698 1.21382 -4.7995 2.31555
lowerback 10.4206 1.12871 -3.20154
upperback 1.9101 1.05314 -2.02305
thorax -3.87015 0.548149 -0.444936
lowerneck -9.87639 -2.85188 -7.74317
upperneck 6.15784 -3.56344 9.11276
head 3.75211 -1.50858 3.83708
rclavicle -2.04748e-014 2.50469e-014
rhumerus -30.3268 2.62819 -85.5698
rradius 31.34
rwrist 18.863
rhand -29.8153 -1.89651
rfingers 7.12502
rthumb -3.13911 -31.8531
lclavicle -2.04748e-014 2.50469e-014
lhumerus -30.0803 13.8914 76.4432
lradius 25.5806
lwrist -2.60914
lhand -29.526 33.3714
lfingers 7.12502
lthumb -2.85968 63.332
rfemur -13.5579 16.8358 16.3157
rtibia 33.9461
rfoot -20.9716 -15.085
rtoes -2.37197
lfemur -12.7133 -0.218479 -21.7627
ltibia 31.827
lfoot -17.5543 6.67
ltoes -6.9778
51
root 0.826426 18.4528 -1.42047 1.09028 -4.76413 2.51573
lowerback 10.8974 1.13502 -3.40986
upperback 2.0458 1.01576 -2.07705
thorax -3.99436 0.531731 -0.386796
lowerneck -9.96004 -2.77989 -7.68569
upperneck 5.68121 -3.4359 9.06341
head 3.60923 -1.44791 3.81925
rclavicle 1.61016e-014 1.03368e-014
rhumerus -30.2392 2.99348 -85.6168
rradius 31.7783
rwrist 18.7354
rhand -30.1783 -1.74855
rfingers 7.12502
rthumb -3.48965 -31.6997
lclavicle 1.61016e-014 1.03368e-014
lhumerus -29.9562 13.5134 76.5064
lradius 25.9415
lwrist -2.67287
lhand -29.4599 33.1943
lfingers 7.12502
lthumb -2.79583 63.1557
rfemur -14.0952 16.5002 16.0748
rtibia 35.0734
rfoot -21.5584 -14.6995
rtoes -2.88212
lfemur -13.32 0.14651 -21.9361
ltibia 32.9934
lfoot -17.9611 6.13677
ltoes -6.60418
52
root 0.828835 18.4031 -1.44239 1.0164 -4.76352 2.62711
lowerback 11.2374 1.15394 -3.49494
upperback 2.1966 1.01615 -2.11905
thorax -4.02536 0.531631 -0.387567
lowerneck -9.92798 -2.73058 -7.68681
upperneck 5.29726 -3.34879 9.06684
head 3.48099 -1.40815 3.82582
rclavicle 5.56597e-015 -4.17448e-014
rhumerus -30.1438 3.33149 -85.6456
rradius 32.1469
rwrist 18.6499
rhand -30.6551 -1.28603
rfingers 7.12502
rthumb -3.95005 -31.2292
lclavicle 5.56597e-015 -4.17448e-014
lhumerus -29.8272 12.8392 76.6988
lradius 26.3845
lwrist -2.15675
lhand -29.5974 33.3226
lfingers 7.12502
lthumb -2.92867 63.2822
rfemur -14.6872 16.1872 15.9095
rtibia 36.1956
rfoot -22.0801 -14.2887
rtoes -3.00036
lfemur -14.0005 0.510852 -22.0043
ltibia 34.2024
lfoot -18.445 5.51232
ltoes -5.49396
53
root 0.832229 18.3544 -1.45775 0.883464 -4.87551 2.5927
lowerback 11.6172 1.21356 -3.43829
upperback 2.3599 1.08716 -2.11856
thorax -4.06448 0.564896 -0.434867
lowerneck -9.85666 -2.70101 -7.73591
upperneck 4.90471 -3.28604 9.0955
head 3.34727 -1.38122 3.84679
rclavicle 2.65378e-014 -4.21423e-014
rhumerus -30.0915 3.6478 -85.637
rradius 32.5987
rwrist 18.6515
rhand -30.6795 -1.54983
rfingers 7.12502
rthumb -3.97368 -31.4925
lclavicle 2.65378e-014 -4.21423e-014
lhumerus -29.7327 12.3903 76.7774
lradius 26.7574
lwrist -2.18271
lhand -29.8035 33.5404
lfingers 7.12502
lthumb -3.12766 63.4972
rfemur -15.2002 16.0417 15.9061
rtibia 37.28
rfoot -22.6168 -13.8383
rtoes -2.50945
lfemur -14.5597 0.909937 -21.9333
ltibia 35.4463
lfoot -18.9462 5.00739
ltoes -4.85016
54
root 0.836388 18.2967 -1.47504 0.747325 -5.03123 2.52594
lowerback 12.0372 1.27707 -3.37202
upperback 2.51044 1.16279 -2.10441
thorax -4.13857 0.600763 -0.475764
lowerneck -9.79737 -2.65623 -7.60825
upperneck 4.38265 -3.20319 8.93069
head 3.16854 -1.34972 3.77969
rclavicle 5.1684e-015 -1.66979e-014
rhumerus -30.0846 3.99465 -85.6294
rradius 33.0917
rwrist 18.6284
rhand -30.8075 -2.06166
rfingers 7.12502
rthumb -4.09727 -32.002
lclavicle 5.1684e-015 -1.66979e-014
lhumerus -29.4711 12.3592 76.6521
lradius 26.7167
lwrist -3.273
lhand -29.7252 32.9796
lfingers 7.12502
lthumb -3.05212 62.9375
rfemur -15.7108 15.8728 15.9304
rtibia 38.3538
rfoot -23.1321 -13.3153
rtoes -2.17769
lfemur -15.1154 1.37658 -21.8467
ltibia 36.7233
lfoot -19.4103 4.66047
ltoes -4.82686
55
root 0.838351 18.2428 -1.49675 0.719136 -5.0916 2.33486
lowerback 12.4165 1.28996 -3.21238
upperback 2.64344 1.1883 -2.03461
thorax -4.20648 0.611235 -0.502989
lowerneck -9.79246 -2.61891 -7.50985
upperneck 3.87687 -3.12471 8.75596
head 3.0046 -1.31967 3.71403
rclavicle 6.26172e-015 1.23246e-014
rhumerus -30.0464 4.50945 -85.6363
rradius 33.5761
rwrist 18.361
rhand -31.2525 -2.1216
rfingers 7.12502
rthumb -4.52694 -32.0532
lclavicle 6.26172e-015 1.23246e-014
lhumerus -29.0447 12.0082 76.8067
lradius 26.6821
lwrist -3.2201
lhand -29.8902 32.3904
lfingers 7.12502
lthumb -3.21139 62.346
rfemur -16.3109 15.5857 16.0889
rtibia 39.4034
rfoot -23.5416 -12.8688
rtoes -2.1051
lfemur -15.8152 1.85009 -21.5959
ltibia 37.9762
lfoot -19.8001 4.14355
ltoes -4.56747
56
root 0.841596 18.1879 -1.51314 0.674301 -5.1087 2.22204
lowerback 12.7909 1.2973 -3.0979
upperback 2.81655 1.20183 -1.99405
thorax -4.22914 0.615557 -0.532863
lowerneck -10.0609 -2.60177 -7.58907
upperneck 3.66734 -3.06562 8.79809
head 2.98252 -1.28511 3.74192
rclavicle 1.05356e-014 1.31198e-014
rhumerus -29.9097 4.82402 -85.5827
rradius 34.019
rwrist 18.2324
rhand -31.5617 -1.91876
rfingers 7.12502
rthumb -4.82548 -31.8438
lclavicle 1.05356e-014 1.31198e-014
lhumerus -28.701 11.2637 77.1389
lradius 26.9562
lwrist -2.19672
lhand -30.403 32.331
lfingers 7.12502
lthumb -3.70665 62.2785
rfemur -16.9119 15.1833 16.1667
rtibia 40.4762
rfoot -23.9351 -12.4863
rtoes -2.41638
lfemur -16.4794 2.28937 -21.4394
ltibia 39.2035
lfoot -20.2306 3.62709
ltoes -4.276
57
root 0.847041 18.135 -1.52766 0.645499 -5.10512 2.21873
lowerback 13.136 1.30491 -3.09755
upperback 2.96623 1.20036 -1.98062
thorax -4.26116 0.613829 -0.524283
lowerneck -10.2506 -2.56206 -7.60348
upperneck 3.45027 -2.98668 8.80629
head 2.942 -1.24283 3.75046
rclavicle -1.98785e-016 1.27222e-014
rhumerus -29.769 5.07608 -85.4946
rradius 34.409
rwrist 18.1928
rhand -31.7662 -1.66183
rfingers 7.12502
rthumb -5.02303 -31.5823
lclavicle -1.98785e-016 1.27222e-014
lhumerus -28.5294 10.915 77.1996
lradius 27.2546
lwrist -2.24911
lhand -30.4952 32.8711
lfingers 7.12502
lthumb -3.79567 62.8171
rfemur -17.52 14.7742 16.1117
rtibia 41.5476
rfoot -24.3419 -12.1195
rtoes -2.78866
lfemur -17.1176 2.59824 -21.4169
ltibia 40.3646
lfoot -20.7122 3.18412
ltoes -3.93157
58
root 0.852638 18.0841 -1.54737 0.678409 -5.09667 2.21172
lowerback 13.4916 1.31562 -3.10312
upperback 3.02772 1.19941 -1.95636
thorax -4.39157 0.61383 -0.502841
lowerneck -10.0305 -2.51018 -7.60913
upperneck 2.96997 -2.90052 8.75834
head 2.75458 -1.20983 3.74303
rclavicle -2.38542e-015 1.35174e-014
rhumerus -29.7378 5.38044 -85.4032
rradius 34.7754
rwrist 18.0759
rhand -32.0923 -1.5244
rfingers 7.12502
rthumb -5.33784 -31.4372
lclavicle -2.38542e-015 1.35174e-014
lhumerus -28.4639 10.8828 77.1005
lradius 27.4843
lwrist -3.21824
lhand -30.0457 33.6363
lfingers 7.12502
lthumb -3.36156 63.5895
rfemur -18.2075 14.3582 16.051
rtibia 42.6306
rfoot -24.7143 -11.8255
rtoes -3.48257
lfemur -17.8262 2.77236 -21.3933
ltibia 41.5013
lfoot -21.1798 2.85987
ltoes -3.67478
59
root 0.857648 18.0308 -1.56406 0.744461 -5.11164 2.20602
lowerback 13.7807 1.32967 -3.11268
upperback 3.12833 1.20627 -1.94103
thorax -4.44415 0.616817 -0.487624
lowerneck -9.89544 -2.45817 -7.55145
upperneck 2.41884 -2.81088 8.66455
head 2.55807 -1.17419 3.71085
rclavicle -5.1684e-015 -2.78299e-015
rhumerus -29.6282 5.67123 -85.2895
rradius 35.1041
rwrist 17.8332
rhand -32.2127 -1.26185
rfingers 7.12502
rthumb -5.45409 -31.1717
lclavicle -5.1684e-015 -2.78299e-015
lhumerus -28.3255 10.8149 77.0542
lradius 27.7126
lwrist -3.61044
lhand -29.988 33.146
lfingers 7.12502
lthumb -3.30588 63.1001
rfemur -18.9628 13.9022 15.9721
rtibia 43.7385
rfoot -25.1037 -11.4721
rtoes -3.93054
lfemur -18.523 3.05331 -21.3767
ltibia 42.5997
lfoot -21.5945 2.50846
ltoes -3.71687
